solid ascii
  facet normal 0.000000e+000 7.071068e-001 -7.071068e-001
    outer loop
      vertex   -3.433317e+001 -1.322258e+002 4.440892e-015
      vertex   -7.183317e+001 -1.322258e+002 4.440892e-015
      vertex   -3.683317e+001 -1.297258e+002 2.500000e+000
    endloop
  endfacet
  facet normal 0.000000e+000 7.071068e-001 -7.071068e-001
    outer loop
      vertex   -3.683317e+001 -1.297258e+002 2.500000e+000
      vertex   -7.183317e+001 -1.322258e+002 4.440892e-015
      vertex   -7.183317e+001 -1.297258e+002 2.500000e+000
    endloop
  endfacet
  facet normal 0.000000e+000 7.071068e-001 -7.071068e-001
    outer loop
      vertex   -7.183317e+001 -1.297258e+002 2.500000e+000
      vertex   -7.183317e+001 -1.322258e+002 4.440892e-015
      vertex   -1.068332e+002 -1.297258e+002 2.500000e+000
    endloop
  endfacet
  facet normal 0.000000e+000 7.071068e-001 -7.071068e-001
    outer loop
      vertex   -1.068332e+002 -1.297258e+002 2.500000e+000
      vertex   -7.183317e+001 -1.322258e+002 4.440892e-015
      vertex   -1.093332e+002 -1.322258e+002 4.440892e-015
    endloop
  endfacet
  facet normal 7.071068e-001 7.071068e-001 -0.000000e+000
    outer loop
      vertex   -3.683317e+001 -1.297258e+002 2.500000e+000
      vertex   -3.683317e+001 -1.297258e+002 4.750000e+001
      vertex   -3.433317e+001 -1.322258e+002 4.440892e-015
    endloop
  endfacet
  facet normal 7.071068e-001 7.071068e-001 0.000000e+000
    outer loop
      vertex   -3.433317e+001 -1.322258e+002 4.440892e-015
      vertex   -3.683317e+001 -1.297258e+002 4.750000e+001
      vertex   -3.433317e+001 -1.322258e+002 5.000000e+001
    endloop
  endfacet
  facet normal -0.000000e+000 7.071068e-001 7.071068e-001
    outer loop
      vertex   -1.093332e+002 -1.322258e+002 5.000000e+001
      vertex   -7.183317e+001 -1.322258e+002 5.000000e+001
      vertex   -1.068332e+002 -1.297258e+002 4.750000e+001
    endloop
  endfacet
  facet normal 0.000000e+000 7.071068e-001 7.071068e-001
    outer loop
      vertex   -1.068332e+002 -1.297258e+002 4.750000e+001
      vertex   -7.183317e+001 -1.322258e+002 5.000000e+001
      vertex   -7.183317e+001 -1.297258e+002 4.750000e+001
    endloop
  endfacet
  facet normal 0.000000e+000 7.071068e-001 7.071068e-001
    outer loop
      vertex   -7.183317e+001 -1.297258e+002 4.750000e+001
      vertex   -7.183317e+001 -1.322258e+002 5.000000e+001
      vertex   -3.683317e+001 -1.297258e+002 4.750000e+001
    endloop
  endfacet
  facet normal -0.000000e+000 7.071068e-001 7.071068e-001
    outer loop
      vertex   -3.683317e+001 -1.297258e+002 4.750000e+001
      vertex   -7.183317e+001 -1.322258e+002 5.000000e+001
      vertex   -3.433317e+001 -1.322258e+002 5.000000e+001
    endloop
  endfacet
  facet normal -7.071068e-001 7.071068e-001 0.000000e+000
    outer loop
      vertex   -1.093332e+002 -1.322258e+002 4.440892e-015
      vertex   -1.093332e+002 -1.322258e+002 5.000000e+001
      vertex   -1.068332e+002 -1.297258e+002 2.500000e+000
    endloop
  endfacet
  facet normal -7.071068e-001 7.071068e-001 0.000000e+000
    outer loop
      vertex   -1.068332e+002 -1.297258e+002 2.500000e+000
      vertex   -1.093332e+002 -1.322258e+002 5.000000e+001
      vertex   -1.068332e+002 -1.297258e+002 4.750000e+001
    endloop
  endfacet
  facet normal -1.000000e+000 -0.000000e+000 -0.000000e+000
    outer loop
      vertex   -1.093332e+002 -1.322258e+002 5.000000e+001
      vertex   -1.093332e+002 -1.322258e+002 4.440892e-015
      vertex   -1.093332e+002 -1.422258e+002 5.000000e+001
    endloop
  endfacet
  facet normal -1.000000e+000 0.000000e+000 -0.000000e+000
    outer loop
      vertex   -1.093332e+002 -1.422258e+002 5.000000e+001
      vertex   -1.093332e+002 -1.322258e+002 4.440892e-015
      vertex   -1.093332e+002 -1.422258e+002 0.000000e+000
    endloop
  endfacet
  facet normal 0.000000e+000 4.440892e-016 -1.000000e+000
    outer loop
      vertex   -1.093332e+002 -1.322258e+002 4.440892e-015
      vertex   -7.183317e+001 -1.322258e+002 4.440892e-015
      vertex   -1.093332e+002 -1.422258e+002 0.000000e+000
    endloop
  endfacet
  facet normal 0.000000e+000 4.440892e-016 -1.000000e+000
    outer loop
      vertex   -1.093332e+002 -1.422258e+002 0.000000e+000
      vertex   -7.183317e+001 -1.322258e+002 4.440892e-015
      vertex   -7.183317e+001 -1.422258e+002 0.000000e+000
    endloop
  endfacet
  facet normal 0.000000e+000 4.440892e-016 -1.000000e+000
    outer loop
      vertex   -7.183317e+001 -1.422258e+002 0.000000e+000
      vertex   -7.183317e+001 -1.322258e+002 4.440892e-015
      vertex   -3.433317e+001 -1.322258e+002 4.440892e-015
    endloop
  endfacet
  facet normal 0.000000e+000 4.440892e-016 -1.000000e+000
    outer loop
      vertex   -3.433317e+001 -1.422258e+002 0.000000e+000
      vertex   -7.183317e+001 -1.422258e+002 0.000000e+000
      vertex   -3.433317e+001 -1.322258e+002 4.440892e-015
    endloop
  endfacet
  facet normal 0.000000e+000 1.000000e+000 0.000000e+000
    outer loop
      vertex   -3.683317e+001 -1.297258e+002 4.750000e+001
      vertex   -3.683317e+001 -1.297258e+002 2.500000e+000
      vertex   -7.183317e+001 -1.297258e+002 4.750000e+001
    endloop
  endfacet
  facet normal 0.000000e+000 1.000000e+000 0.000000e+000
    outer loop
      vertex   -7.183317e+001 -1.297258e+002 4.750000e+001
      vertex   -3.683317e+001 -1.297258e+002 2.500000e+000
      vertex   -7.183317e+001 -1.297258e+002 2.500000e+000
    endloop
  endfacet
  facet normal 0.000000e+000 1.000000e+000 0.000000e+000
    outer loop
      vertex   -1.068332e+002 -1.297258e+002 4.750000e+001
      vertex   -7.183317e+001 -1.297258e+002 2.500000e+000
      vertex   -1.068332e+002 -1.297258e+002 2.500000e+000
    endloop
  endfacet
  facet normal -0.000000e+000 1.000000e+000 0.000000e+000
    outer loop
      vertex   -1.068332e+002 -1.297258e+002 4.750000e+001
      vertex   -7.183317e+001 -1.297258e+002 4.750000e+001
      vertex   -7.183317e+001 -1.297258e+002 2.500000e+000
    endloop
  endfacet
  facet normal 0.000000e+000 0.000000e+000 1.000000e+000
    outer loop
      vertex   -3.433317e+001 -1.322258e+002 5.000000e+001
      vertex   -7.183317e+001 -1.322258e+002 5.000000e+001
      vertex   -3.433317e+001 -1.422258e+002 5.000000e+001
    endloop
  endfacet
  facet normal 0.000000e+000 0.000000e+000 1.000000e+000
    outer loop
      vertex   -3.433317e+001 -1.422258e+002 5.000000e+001
      vertex   -7.183317e+001 -1.322258e+002 5.000000e+001
      vertex   -7.183317e+001 -1.422258e+002 5.000000e+001
    endloop
  endfacet
  facet normal 0.000000e+000 -0.000000e+000 1.000000e+000
    outer loop
      vertex   -7.183317e+001 -1.422258e+002 5.000000e+001
      vertex   -7.183317e+001 -1.322258e+002 5.000000e+001
      vertex   -1.093332e+002 -1.322258e+002 5.000000e+001
    endloop
  endfacet
  facet normal 0.000000e+000 -0.000000e+000 1.000000e+000
    outer loop
      vertex   -1.093332e+002 -1.422258e+002 5.000000e+001
      vertex   -7.183317e+001 -1.422258e+002 5.000000e+001
      vertex   -1.093332e+002 -1.322258e+002 5.000000e+001
    endloop
  endfacet
  facet normal 0.000000e+000 -1.000000e+000 0.000000e+000
    outer loop
      vertex   -1.093332e+002 -1.422258e+002 5.000000e+001
      vertex   -1.093332e+002 -1.422258e+002 0.000000e+000
      vertex   -7.183317e+001 -1.422258e+002 5.000000e+001
    endloop
  endfacet
  facet normal 0.000000e+000 -1.000000e+000 -0.000000e+000
    outer loop
      vertex   -7.183317e+001 -1.422258e+002 5.000000e+001
      vertex   -1.093332e+002 -1.422258e+002 0.000000e+000
      vertex   -7.183317e+001 -1.422258e+002 0.000000e+000
    endloop
  endfacet
  facet normal 0.000000e+000 -1.000000e+000 -0.000000e+000
    outer loop
      vertex   -3.433317e+001 -1.422258e+002 5.000000e+001
      vertex   -7.183317e+001 -1.422258e+002 0.000000e+000
      vertex   -3.433317e+001 -1.422258e+002 0.000000e+000
    endloop
  endfacet
  facet normal -0.000000e+000 -1.000000e+000 -0.000000e+000
    outer loop
      vertex   -3.433317e+001 -1.422258e+002 5.000000e+001
      vertex   -7.183317e+001 -1.422258e+002 5.000000e+001
      vertex   -7.183317e+001 -1.422258e+002 0.000000e+000
    endloop
  endfacet
  facet normal 1.000000e+000 0.000000e+000 -0.000000e+000
    outer loop
      vertex   -3.433317e+001 -1.322258e+002 4.440892e-015
      vertex   -3.433317e+001 -1.322258e+002 5.000000e+001
      vertex   -3.433317e+001 -1.422258e+002 0.000000e+000
    endloop
  endfacet
  facet normal 1.000000e+000 0.000000e+000 -0.000000e+000
    outer loop
      vertex   -3.433317e+001 -1.422258e+002 0.000000e+000
      vertex   -3.433317e+001 -1.322258e+002 5.000000e+001
      vertex   -3.433317e+001 -1.422258e+002 5.000000e+001
    endloop
  endfacet
endsolid
solid ascii
  facet normal 0.000000e+000 7.071068e-001 -7.071068e-001
    outer loop
      vertex   -1.600775e+002 -1.375017e+002 4.440892e-015
      vertex   -1.975775e+002 -1.375017e+002 4.440892e-015
      vertex   -1.625775e+002 -1.350017e+002 2.500000e+000
    endloop
  endfacet
  facet normal 0.000000e+000 7.071068e-001 -7.071068e-001
    outer loop
      vertex   -1.625775e+002 -1.350017e+002 2.500000e+000
      vertex   -1.975775e+002 -1.375017e+002 4.440892e-015
      vertex   -1.975775e+002 -1.350017e+002 2.500000e+000
    endloop
  endfacet
  facet normal 0.000000e+000 7.071068e-001 -7.071068e-001
    outer loop
      vertex   -1.975775e+002 -1.350017e+002 2.500000e+000
      vertex   -1.975775e+002 -1.375017e+002 4.440892e-015
      vertex   -2.325775e+002 -1.350017e+002 2.500000e+000
    endloop
  endfacet
  facet normal 0.000000e+000 7.071068e-001 -7.071068e-001
    outer loop
      vertex   -2.325775e+002 -1.350017e+002 2.500000e+000
      vertex   -1.975775e+002 -1.375017e+002 4.440892e-015
      vertex   -2.350775e+002 -1.375017e+002 4.440892e-015
    endloop
  endfacet
  facet normal 7.071068e-001 7.071068e-001 -0.000000e+000
    outer loop
      vertex   -1.625775e+002 -1.350017e+002 2.500000e+000
      vertex   -1.625775e+002 -1.350017e+002 4.750000e+001
      vertex   -1.600775e+002 -1.375017e+002 4.440892e-015
    endloop
  endfacet
  facet normal 7.071068e-001 7.071068e-001 0.000000e+000
    outer loop
      vertex   -1.600775e+002 -1.375017e+002 4.440892e-015
      vertex   -1.625775e+002 -1.350017e+002 4.750000e+001
      vertex   -1.600775e+002 -1.375017e+002 5.000000e+001
    endloop
  endfacet
  facet normal -0.000000e+000 7.071068e-001 7.071068e-001
    outer loop
      vertex   -2.350775e+002 -1.375017e+002 5.000000e+001
      vertex   -1.975775e+002 -1.375017e+002 5.000000e+001
      vertex   -2.325775e+002 -1.350017e+002 4.750000e+001
    endloop
  endfacet
  facet normal 0.000000e+000 7.071068e-001 7.071068e-001
    outer loop
      vertex   -2.325775e+002 -1.350017e+002 4.750000e+001
      vertex   -1.975775e+002 -1.375017e+002 5.000000e+001
      vertex   -1.975775e+002 -1.350017e+002 4.750000e+001
    endloop
  endfacet
  facet normal 0.000000e+000 7.071068e-001 7.071068e-001
    outer loop
      vertex   -1.975775e+002 -1.350017e+002 4.750000e+001
      vertex   -1.975775e+002 -1.375017e+002 5.000000e+001
      vertex   -1.625775e+002 -1.350017e+002 4.750000e+001
    endloop
  endfacet
  facet normal -0.000000e+000 7.071068e-001 7.071068e-001
    outer loop
      vertex   -1.625775e+002 -1.350017e+002 4.750000e+001
      vertex   -1.975775e+002 -1.375017e+002 5.000000e+001
      vertex   -1.600775e+002 -1.375017e+002 5.000000e+001
    endloop
  endfacet
  facet normal -7.071068e-001 7.071068e-001 0.000000e+000
    outer loop
      vertex   -2.350775e+002 -1.375017e+002 4.440892e-015
      vertex   -2.350775e+002 -1.375017e+002 5.000000e+001
      vertex   -2.325775e+002 -1.350017e+002 2.500000e+000
    endloop
  endfacet
  facet normal -7.071068e-001 7.071068e-001 0.000000e+000
    outer loop
      vertex   -2.325775e+002 -1.350017e+002 2.500000e+000
      vertex   -2.350775e+002 -1.375017e+002 5.000000e+001
      vertex   -2.325775e+002 -1.350017e+002 4.750000e+001
    endloop
  endfacet
  facet normal -1.000000e+000 -0.000000e+000 -0.000000e+000
    outer loop
      vertex   -2.350775e+002 -1.375017e+002 5.000000e+001
      vertex   -2.350775e+002 -1.375017e+002 4.440892e-015
      vertex   -2.350775e+002 -1.475017e+002 5.000000e+001
    endloop
  endfacet
  facet normal -1.000000e+000 0.000000e+000 -0.000000e+000
    outer loop
      vertex   -2.350775e+002 -1.475017e+002 5.000000e+001
      vertex   -2.350775e+002 -1.375017e+002 4.440892e-015
      vertex   -2.350775e+002 -1.475017e+002 0.000000e+000
    endloop
  endfacet
  facet normal 0.000000e+000 4.440892e-016 -1.000000e+000
    outer loop
      vertex   -2.350775e+002 -1.375017e+002 4.440892e-015
      vertex   -1.975775e+002 -1.375017e+002 4.440892e-015
      vertex   -2.350775e+002 -1.475017e+002 0.000000e+000
    endloop
  endfacet
  facet normal 0.000000e+000 4.440892e-016 -1.000000e+000
    outer loop
      vertex   -2.350775e+002 -1.475017e+002 0.000000e+000
      vertex   -1.975775e+002 -1.375017e+002 4.440892e-015
      vertex   -1.975775e+002 -1.475017e+002 0.000000e+000
    endloop
  endfacet
  facet normal 0.000000e+000 4.440892e-016 -1.000000e+000
    outer loop
      vertex   -1.975775e+002 -1.475017e+002 0.000000e+000
      vertex   -1.975775e+002 -1.375017e+002 4.440892e-015
      vertex   -1.600775e+002 -1.375017e+002 4.440892e-015
    endloop
  endfacet
  facet normal 0.000000e+000 4.440892e-016 -1.000000e+000
    outer loop
      vertex   -1.600775e+002 -1.475017e+002 0.000000e+000
      vertex   -1.975775e+002 -1.475017e+002 0.000000e+000
      vertex   -1.600775e+002 -1.375017e+002 4.440892e-015
    endloop
  endfacet
  facet normal 0.000000e+000 1.000000e+000 0.000000e+000
    outer loop
      vertex   -1.625775e+002 -1.350017e+002 4.750000e+001
      vertex   -1.625775e+002 -1.350017e+002 2.500000e+000
      vertex   -1.975775e+002 -1.350017e+002 4.750000e+001
    endloop
  endfacet
  facet normal 0.000000e+000 1.000000e+000 0.000000e+000
    outer loop
      vertex   -1.975775e+002 -1.350017e+002 4.750000e+001
      vertex   -1.625775e+002 -1.350017e+002 2.500000e+000
      vertex   -1.975775e+002 -1.350017e+002 2.500000e+000
    endloop
  endfacet
  facet normal 0.000000e+000 1.000000e+000 0.000000e+000
    outer loop
      vertex   -2.325775e+002 -1.350017e+002 4.750000e+001
      vertex   -1.975775e+002 -1.350017e+002 2.500000e+000
      vertex   -2.325775e+002 -1.350017e+002 2.500000e+000
    endloop
  endfacet
  facet normal -0.000000e+000 1.000000e+000 0.000000e+000
    outer loop
      vertex   -2.325775e+002 -1.350017e+002 4.750000e+001
      vertex   -1.975775e+002 -1.350017e+002 4.750000e+001
      vertex   -1.975775e+002 -1.350017e+002 2.500000e+000
    endloop
  endfacet
  facet normal 0.000000e+000 0.000000e+000 1.000000e+000
    outer loop
      vertex   -1.600775e+002 -1.375017e+002 5.000000e+001
      vertex   -1.975775e+002 -1.375017e+002 5.000000e+001
      vertex   -1.600775e+002 -1.475017e+002 5.000000e+001
    endloop
  endfacet
  facet normal 0.000000e+000 0.000000e+000 1.000000e+000
    outer loop
      vertex   -1.600775e+002 -1.475017e+002 5.000000e+001
      vertex   -1.975775e+002 -1.375017e+002 5.000000e+001
      vertex   -1.975775e+002 -1.475017e+002 5.000000e+001
    endloop
  endfacet
  facet normal 0.000000e+000 -0.000000e+000 1.000000e+000
    outer loop
      vertex   -1.975775e+002 -1.475017e+002 5.000000e+001
      vertex   -1.975775e+002 -1.375017e+002 5.000000e+001
      vertex   -2.350775e+002 -1.375017e+002 5.000000e+001
    endloop
  endfacet
  facet normal 0.000000e+000 -0.000000e+000 1.000000e+000
    outer loop
      vertex   -2.350775e+002 -1.475017e+002 5.000000e+001
      vertex   -1.975775e+002 -1.475017e+002 5.000000e+001
      vertex   -2.350775e+002 -1.375017e+002 5.000000e+001
    endloop
  endfacet
  facet normal 0.000000e+000 -1.000000e+000 0.000000e+000
    outer loop
      vertex   -2.350775e+002 -1.475017e+002 5.000000e+001
      vertex   -2.350775e+002 -1.475017e+002 0.000000e+000
      vertex   -1.975775e+002 -1.475017e+002 5.000000e+001
    endloop
  endfacet
  facet normal 0.000000e+000 -1.000000e+000 -0.000000e+000
    outer loop
      vertex   -1.975775e+002 -1.475017e+002 5.000000e+001
      vertex   -2.350775e+002 -1.475017e+002 0.000000e+000
      vertex   -1.975775e+002 -1.475017e+002 0.000000e+000
    endloop
  endfacet
  facet normal 0.000000e+000 -1.000000e+000 -0.000000e+000
    outer loop
      vertex   -1.600775e+002 -1.475017e+002 5.000000e+001
      vertex   -1.975775e+002 -1.475017e+002 0.000000e+000
      vertex   -1.600775e+002 -1.475017e+002 0.000000e+000
    endloop
  endfacet
  facet normal -0.000000e+000 -1.000000e+000 -0.000000e+000
    outer loop
      vertex   -1.600775e+002 -1.475017e+002 5.000000e+001
      vertex   -1.975775e+002 -1.475017e+002 5.000000e+001
      vertex   -1.975775e+002 -1.475017e+002 0.000000e+000
    endloop
  endfacet
  facet normal 1.000000e+000 0.000000e+000 -0.000000e+000
    outer loop
      vertex   -1.600775e+002 -1.375017e+002 4.440892e-015
      vertex   -1.600775e+002 -1.375017e+002 5.000000e+001
      vertex   -1.600775e+002 -1.475017e+002 0.000000e+000
    endloop
  endfacet
  facet normal 1.000000e+000 0.000000e+000 -0.000000e+000
    outer loop
      vertex   -1.600775e+002 -1.475017e+002 0.000000e+000
      vertex   -1.600775e+002 -1.375017e+002 5.000000e+001
      vertex   -1.600775e+002 -1.475017e+002 5.000000e+001
    endloop
  endfacet
endsolid
solid ascii
  facet normal 0.000000e+000 0.000000e+000 1.000000e+000
    outer loop
      vertex   -3.157164e+001 -1.060118e+002 5.000000e+001
      vertex   -6.907164e+001 -1.060118e+002 5.000000e+001
      vertex   -3.157164e+001 -1.185118e+002 5.000000e+001
    endloop
  endfacet
  facet normal 0.000000e+000 0.000000e+000 1.000000e+000
    outer loop
      vertex   -3.157164e+001 -1.185118e+002 5.000000e+001
      vertex   -6.907164e+001 -1.060118e+002 5.000000e+001
      vertex   -6.907164e+001 -1.185118e+002 5.000000e+001
    endloop
  endfacet
  facet normal 0.000000e+000 -0.000000e+000 1.000000e+000
    outer loop
      vertex   -6.907164e+001 -1.185118e+002 5.000000e+001
      vertex   -6.907164e+001 -1.060118e+002 5.000000e+001
      vertex   -1.065716e+002 -1.060118e+002 5.000000e+001
    endloop
  endfacet
  facet normal 0.000000e+000 -0.000000e+000 1.000000e+000
    outer loop
      vertex   -1.065716e+002 -1.185118e+002 5.000000e+001
      vertex   -6.907164e+001 -1.185118e+002 5.000000e+001
      vertex   -1.065716e+002 -1.060118e+002 5.000000e+001
    endloop
  endfacet
  facet normal 0.000000e+000 0.000000e+000 -1.000000e+000
    outer loop
      vertex   -3.157164e+001 -1.185118e+002 0.000000e+000
      vertex   -6.907164e+001 -1.185118e+002 0.000000e+000
      vertex   -3.157164e+001 -1.060118e+002 0.000000e+000
    endloop
  endfacet
  facet normal -0.000000e+000 0.000000e+000 -1.000000e+000
    outer loop
      vertex   -3.157164e+001 -1.060118e+002 0.000000e+000
      vertex   -6.907164e+001 -1.185118e+002 0.000000e+000
      vertex   -6.907164e+001 -1.060118e+002 0.000000e+000
    endloop
  endfacet
  facet normal -0.000000e+000 -0.000000e+000 -1.000000e+000
    outer loop
      vertex   -6.907164e+001 -1.060118e+002 0.000000e+000
      vertex   -6.907164e+001 -1.185118e+002 0.000000e+000
      vertex   -1.065716e+002 -1.185118e+002 0.000000e+000
    endloop
  endfacet
  facet normal 0.000000e+000 -0.000000e+000 -1.000000e+000
    outer loop
      vertex   -1.065716e+002 -1.060118e+002 0.000000e+000
      vertex   -6.907164e+001 -1.060118e+002 0.000000e+000
      vertex   -1.065716e+002 -1.185118e+002 0.000000e+000
    endloop
  endfacet
  facet normal 0.000000e+000 -1.000000e+000 0.000000e+000
    outer loop
      vertex   -1.065716e+002 -1.185118e+002 5.000000e+001
      vertex   -1.065716e+002 -1.185118e+002 0.000000e+000
      vertex   -6.907164e+001 -1.185118e+002 5.000000e+001
    endloop
  endfacet
  facet normal 0.000000e+000 -1.000000e+000 -0.000000e+000
    outer loop
      vertex   -6.907164e+001 -1.185118e+002 5.000000e+001
      vertex   -1.065716e+002 -1.185118e+002 0.000000e+000
      vertex   -6.907164e+001 -1.185118e+002 0.000000e+000
    endloop
  endfacet
  facet normal 0.000000e+000 -1.000000e+000 -0.000000e+000
    outer loop
      vertex   -3.157164e+001 -1.185118e+002 5.000000e+001
      vertex   -6.907164e+001 -1.185118e+002 0.000000e+000
      vertex   -3.157164e+001 -1.185118e+002 0.000000e+000
    endloop
  endfacet
  facet normal -0.000000e+000 -1.000000e+000 -0.000000e+000
    outer loop
      vertex   -3.157164e+001 -1.185118e+002 5.000000e+001
      vertex   -6.907164e+001 -1.185118e+002 5.000000e+001
      vertex   -6.907164e+001 -1.185118e+002 0.000000e+000
    endloop
  endfacet
  facet normal -1.000000e+000 -0.000000e+000 -0.000000e+000
    outer loop
      vertex   -1.065716e+002 -1.060118e+002 5.000000e+001
      vertex   -1.065716e+002 -1.060118e+002 0.000000e+000
      vertex   -1.065716e+002 -1.185118e+002 5.000000e+001
    endloop
  endfacet
  facet normal -1.000000e+000 -0.000000e+000 -0.000000e+000
    outer loop
      vertex   -1.065716e+002 -1.185118e+002 5.000000e+001
      vertex   -1.065716e+002 -1.060118e+002 0.000000e+000
      vertex   -1.065716e+002 -1.185118e+002 0.000000e+000
    endloop
  endfacet
  facet normal 0.000000e+000 1.000000e+000 0.000000e+000
    outer loop
      vertex   -3.157164e+001 -1.060118e+002 5.000000e+001
      vertex   -3.157164e+001 -1.060118e+002 0.000000e+000
      vertex   -6.907164e+001 -1.060118e+002 5.000000e+001
    endloop
  endfacet
  facet normal 0.000000e+000 1.000000e+000 0.000000e+000
    outer loop
      vertex   -6.907164e+001 -1.060118e+002 5.000000e+001
      vertex   -3.157164e+001 -1.060118e+002 0.000000e+000
      vertex   -6.907164e+001 -1.060118e+002 0.000000e+000
    endloop
  endfacet
  facet normal 0.000000e+000 1.000000e+000 0.000000e+000
    outer loop
      vertex   -1.065716e+002 -1.060118e+002 5.000000e+001
      vertex   -6.907164e+001 -1.060118e+002 0.000000e+000
      vertex   -1.065716e+002 -1.060118e+002 0.000000e+000
    endloop
  endfacet
  facet normal -0.000000e+000 1.000000e+000 0.000000e+000
    outer loop
      vertex   -1.065716e+002 -1.060118e+002 5.000000e+001
      vertex   -6.907164e+001 -1.060118e+002 5.000000e+001
      vertex   -6.907164e+001 -1.060118e+002 0.000000e+000
    endloop
  endfacet
  facet normal 1.000000e+000 -0.000000e+000 0.000000e+000
    outer loop
      vertex   -3.157164e+001 -1.185118e+002 5.000000e+001
      vertex   -3.157164e+001 -1.185118e+002 0.000000e+000
      vertex   -3.157164e+001 -1.060118e+002 5.000000e+001
    endloop
  endfacet
  facet normal 1.000000e+000 -0.000000e+000 0.000000e+000
    outer loop
      vertex   -3.157164e+001 -1.060118e+002 5.000000e+001
      vertex   -3.157164e+001 -1.185118e+002 0.000000e+000
      vertex   -3.157164e+001 -1.060118e+002 0.000000e+000
    endloop
  endfacet
endsolid
solid ascii
  facet normal 0.000000e+000 0.000000e+000 1.000000e+000
    outer loop
      vertex   -1.613923e+002 -1.067691e+002 5.000000e+001
      vertex   -1.988923e+002 -1.067691e+002 5.000000e+001
      vertex   -1.613923e+002 -1.192691e+002 5.000000e+001
    endloop
  endfacet
  facet normal 0.000000e+000 0.000000e+000 1.000000e+000
    outer loop
      vertex   -1.613923e+002 -1.192691e+002 5.000000e+001
      vertex   -1.988923e+002 -1.067691e+002 5.000000e+001
      vertex   -1.988923e+002 -1.192691e+002 5.000000e+001
    endloop
  endfacet
  facet normal 0.000000e+000 -0.000000e+000 1.000000e+000
    outer loop
      vertex   -1.988923e+002 -1.192691e+002 5.000000e+001
      vertex   -1.988923e+002 -1.067691e+002 5.000000e+001
      vertex   -2.363923e+002 -1.067691e+002 5.000000e+001
    endloop
  endfacet
  facet normal 0.000000e+000 -0.000000e+000 1.000000e+000
    outer loop
      vertex   -2.363923e+002 -1.192691e+002 5.000000e+001
      vertex   -1.988923e+002 -1.192691e+002 5.000000e+001
      vertex   -2.363923e+002 -1.067691e+002 5.000000e+001
    endloop
  endfacet
  facet normal 0.000000e+000 0.000000e+000 -1.000000e+000
    outer loop
      vertex   -1.613923e+002 -1.192691e+002 0.000000e+000
      vertex   -1.988923e+002 -1.192691e+002 0.000000e+000
      vertex   -1.613923e+002 -1.067691e+002 0.000000e+000
    endloop
  endfacet
  facet normal -0.000000e+000 0.000000e+000 -1.000000e+000
    outer loop
      vertex   -1.613923e+002 -1.067691e+002 0.000000e+000
      vertex   -1.988923e+002 -1.192691e+002 0.000000e+000
      vertex   -1.988923e+002 -1.067691e+002 0.000000e+000
    endloop
  endfacet
  facet normal -0.000000e+000 -0.000000e+000 -1.000000e+000
    outer loop
      vertex   -1.988923e+002 -1.067691e+002 0.000000e+000
      vertex   -1.988923e+002 -1.192691e+002 0.000000e+000
      vertex   -2.363923e+002 -1.192691e+002 0.000000e+000
    endloop
  endfacet
  facet normal 0.000000e+000 -0.000000e+000 -1.000000e+000
    outer loop
      vertex   -2.363923e+002 -1.067691e+002 0.000000e+000
      vertex   -1.988923e+002 -1.067691e+002 0.000000e+000
      vertex   -2.363923e+002 -1.192691e+002 0.000000e+000
    endloop
  endfacet
  facet normal 0.000000e+000 -1.000000e+000 0.000000e+000
    outer loop
      vertex   -2.363923e+002 -1.192691e+002 5.000000e+001
      vertex   -2.363923e+002 -1.192691e+002 0.000000e+000
      vertex   -1.988923e+002 -1.192691e+002 5.000000e+001
    endloop
  endfacet
  facet normal 0.000000e+000 -1.000000e+000 -0.000000e+000
    outer loop
      vertex   -1.988923e+002 -1.192691e+002 5.000000e+001
      vertex   -2.363923e+002 -1.192691e+002 0.000000e+000
      vertex   -1.988923e+002 -1.192691e+002 0.000000e+000
    endloop
  endfacet
  facet normal 0.000000e+000 -1.000000e+000 -0.000000e+000
    outer loop
      vertex   -1.613923e+002 -1.192691e+002 5.000000e+001
      vertex   -1.988923e+002 -1.192691e+002 0.000000e+000
      vertex   -1.613923e+002 -1.192691e+002 0.000000e+000
    endloop
  endfacet
  facet normal -0.000000e+000 -1.000000e+000 -0.000000e+000
    outer loop
      vertex   -1.613923e+002 -1.192691e+002 5.000000e+001
      vertex   -1.988923e+002 -1.192691e+002 5.000000e+001
      vertex   -1.988923e+002 -1.192691e+002 0.000000e+000
    endloop
  endfacet
  facet normal -1.000000e+000 -0.000000e+000 -0.000000e+000
    outer loop
      vertex   -2.363923e+002 -1.067691e+002 5.000000e+001
      vertex   -2.363923e+002 -1.067691e+002 0.000000e+000
      vertex   -2.363923e+002 -1.192691e+002 5.000000e+001
    endloop
  endfacet
  facet normal -1.000000e+000 -0.000000e+000 -0.000000e+000
    outer loop
      vertex   -2.363923e+002 -1.192691e+002 5.000000e+001
      vertex   -2.363923e+002 -1.067691e+002 0.000000e+000
      vertex   -2.363923e+002 -1.192691e+002 0.000000e+000
    endloop
  endfacet
  facet normal 0.000000e+000 1.000000e+000 0.000000e+000
    outer loop
      vertex   -1.613923e+002 -1.067691e+002 5.000000e+001
      vertex   -1.613923e+002 -1.067691e+002 0.000000e+000
      vertex   -1.988923e+002 -1.067691e+002 5.000000e+001
    endloop
  endfacet
  facet normal 0.000000e+000 1.000000e+000 0.000000e+000
    outer loop
      vertex   -1.988923e+002 -1.067691e+002 5.000000e+001
      vertex   -1.613923e+002 -1.067691e+002 0.000000e+000
      vertex   -1.988923e+002 -1.067691e+002 0.000000e+000
    endloop
  endfacet
  facet normal 0.000000e+000 1.000000e+000 0.000000e+000
    outer loop
      vertex   -2.363923e+002 -1.067691e+002 5.000000e+001
      vertex   -1.988923e+002 -1.067691e+002 0.000000e+000
      vertex   -2.363923e+002 -1.067691e+002 0.000000e+000
    endloop
  endfacet
  facet normal -0.000000e+000 1.000000e+000 0.000000e+000
    outer loop
      vertex   -2.363923e+002 -1.067691e+002 5.000000e+001
      vertex   -1.988923e+002 -1.067691e+002 5.000000e+001
      vertex   -1.988923e+002 -1.067691e+002 0.000000e+000
    endloop
  endfacet
  facet normal 1.000000e+000 -0.000000e+000 0.000000e+000
    outer loop
      vertex   -1.613923e+002 -1.192691e+002 5.000000e+001
      vertex   -1.613923e+002 -1.192691e+002 0.000000e+000
      vertex   -1.613923e+002 -1.067691e+002 5.000000e+001
    endloop
  endfacet
  facet normal 1.000000e+000 -0.000000e+000 0.000000e+000
    outer loop
      vertex   -1.613923e+002 -1.067691e+002 5.000000e+001
      vertex   -1.613923e+002 -1.192691e+002 0.000000e+000
      vertex   -1.613923e+002 -1.067691e+002 0.000000e+000
    endloop
  endfacet
endsolid
